<svg xmlns="http://www.w3.org/2000/svg" xmlns:xlink="http://www.w3.org/1999/xlink" width="1080" zoomAndPan="magnify" viewBox="0 0 810 809.999993" height="1080" preserveAspectRatio="xMidYMid meet" version="1.0"><path fill="#ffbd59" d="M 715.859375 248.347656 L 715.859375 326.042969 C 715.859375 340.285156 704.207031 351.941406 689.960938 351.941406 L 405.078125 351.941406 C 396.015625 351.941406 387.46875 347.277344 382.808594 339.25 L 336.191406 261.554688 C 331.527344 253.785156 331.269531 243.683594 335.929688 235.65625 C 340.59375 227.367188 349.140625 222.449219 358.460938 222.449219 L 689.960938 222.449219 C 704.207031 222.449219 715.859375 234.101562 715.859375 248.347656 Z M 715.859375 248.347656 " fill-opacity="1" fill-rule="nonzero"/><path fill="#ffde59" d="M 793.554688 326.042969 L 793.554688 766.316406 C 793.554688 780.558594 781.902344 792.214844 767.65625 792.214844 L 42.5 792.214844 C 28.257812 792.214844 16.601562 780.558594 16.601562 766.316406 L 16.601562 196.550781 C 16.601562 182.304688 28.257812 170.652344 42.5 170.652344 L 327.382812 170.652344 C 336.449219 170.652344 344.996094 175.3125 349.65625 183.339844 L 419.84375 300.144531 L 767.65625 300.144531 C 781.902344 300.144531 793.554688 311.796875 793.554688 326.042969 Z M 793.554688 326.042969 " fill-opacity="1" fill-rule="nonzero"/></svg>